<?xml version="1.0" encoding="UTF-8" standalone="no"?>
<!-- Created with Inkscape (http://www.inkscape.org/) -->

<svg
   xmlns:dc="http://purl.org/dc/elements/1.1/"
   xmlns:cc="http://creativecommons.org/ns#"
   xmlns:rdf="http://www.w3.org/1999/02/22-rdf-syntax-ns#"
   xmlns:svg="http://www.w3.org/2000/svg"
   xmlns="http://www.w3.org/2000/svg"
   xmlns:sodipodi="http://sodipodi.sourceforge.net/DTD/sodipodi-0.dtd"
   xmlns:inkscape="http://www.inkscape.org/namespaces/inkscape"
   version="1.1"
   id="svg77"
   width="145.92"
   height="42.240002"
   viewBox="0 0 145.92 42.240002"
   sodipodi:docname="miniawp.svg"
   inkscape:version="0.92.4 (5da689c313, 2019-01-14)">
  <metadata
     id="metadata83">
    <rdf:RDF>
      <cc:Work
         rdf:about="">
        <dc:format>image/svg+xml</dc:format>
        <dc:type
           rdf:resource="http://purl.org/dc/dcmitype/StillImage" />
        <dc:title></dc:title>
      </cc:Work>
    </rdf:RDF>
  </metadata>
  <defs
     id="defs81" />
  <sodipodi:namedview
     pagecolor="#ffffff"
     bordercolor="#666666"
     borderopacity="1"
     objecttolerance="10"
     gridtolerance="10"
     guidetolerance="10"
     inkscape:pageopacity="0"
     inkscape:pageshadow="2"
     inkscape:window-width="1920"
     inkscape:window-height="1017"
     id="namedview79"
     showgrid="false"
     inkscape:zoom="1.946272"
     inkscape:cx="72.959999"
     inkscape:cy="21.120001"
     inkscape:window-x="-8"
     inkscape:window-y="-8"
     inkscape:window-maximized="1"
     inkscape:current-layer="svg77" />
  <path
     style="fill:#ffffff;fill-opacity:1;stroke-width:0.51380283"
     d="m 1.0276056,21.942086 v -3.082817 h 4.6242255 c 4.5899709,0 4.6242249,-0.0095 4.6242249,-1.284507 v -1.284507 h 6.936338 c 5.823099,0 6.936338,0.123693 6.936338,0.770704 0,0.658576 1.449667,0.770704 9.964184,0.770704 8.634381,0 10.006028,0.109045 10.277723,0.817071 0.172447,0.449389 0.183538,1.027417 0.02465,1.284507 -0.158889,0.25709 -3.396597,0.467436 -7.194905,0.467436 -6.307701,0 -6.906015,0.08013 -6.906015,0.924845 0,0.508665 -0.277454,1.202299 -0.616563,1.541409 -0.808231,0.80823 -7.314808,0.806051 -8.610117,-0.0029 -0.812307,-0.507294 -1.172558,-0.455947 -1.989752,0.283603 -0.714948,0.64702 -1.696846,0.866868 -3.463271,0.77543 -1.557678,-0.08063 -2.540857,0.09871 -2.670319,0.487101 -0.250136,0.7504 -5.0584119,0.838398 -5.5142029,0.100912 -0.174652,-0.282592 -0.766325,-0.513803 -1.31483,-0.513803 -0.548506,0 -0.997283,0.231211 -0.997283,0.513803 0,0.282591 -0.9248451,0.513803 -2.0552112,0.513803 H 1.0276056 Z"
     id="path102"
     inkscape:connector-curvature="0" />
</svg>
